<svg xmlns="http://www.w3.org/2000/svg" viewBox="0 0 470.39 477.2"><defs><style>.cls-1{fill:#036cb2;}.cls-2{fill:#fff;}</style></defs><title>Datový zdroj 1</title><g id="Vrstva_2" data-name="Vrstva 2"><g id="Vrstva_1-2" data-name="Vrstva 1"><polygon class="cls-1" points="431.44 379.81 470.39 0 235.2 34.09 0 0 38.95 379.81 235.2 477.2 431.44 379.81"/><path class="cls-2" d="M235.44,151.78a90.78,90.78,0,0,1,90.07,80.42h18.66a109.24,109.24,0,1,0-46.56,100l8.37,8.21.25-32.12-33,0,10.83,10.63a90.63,90.63,0,1,1-48.61-167.12Z"/><polygon class="cls-2" points="221.41 191.87 253.53 178.66 236.63 220.9 244.72 235.77 236.16 257.9 339.31 257.9 316.11 285.74 173.1 285.26 203.86 210.25 216.79 204.63 221.41 191.87"/></g></g></svg>